<?xml version="1.0" encoding="UTF-8"?>
<svg xmlns="http://www.w3.org/2000/svg" version="1.1" viewBox="0 0 100 100">
  <defs>
    <style>
      .cls-1 {
        fill: #bdc6c3;
      }

      .cls-1, .cls-2 {
        stroke-width: 0px;
      }

      .cls-2 {
        fill: #d3ddda;
      }
    </style>
  </defs>
  <g id="Layer_1" data-name="Layer 1">
    <circle class="cls-2" cx="50" cy="50" r="47.5"/>
  </g>
  <g id="Layer_4" data-name="Layer 4">
    <g>
      <path class="cls-1" d="M50,80c-16.6-.2-30-13.4-30-30,0-16.6,13.4-30,30-30,16.6,0,30,13.4,30,30,0,16.6-13.4,29.9-30,30ZM73.8,50c.1-13-10.8-23.8-23.8-23.8-13.1,0-23.8,10.9-23.8,23.8,0,13,10.8,23.8,23.8,23.8,13,0,23.9-10.8,23.8-23.8Z"/>
      <path class="cls-1" d="M50.3,59.1c-.8,0-1.6,0-2.3,0-.3,0-.7,0-.7-.5-.2-2.7.2-5.2,2.3-7.2.8-.8,1.7-1.3,2.7-1.7,2.9-1.2,4.1-3.5,3.6-6.7-.5-2.6-2.8-4.4-5.7-4.6-3.1-.2-5.6,1.9-6,5.1,0,.5-.3.7-.8.7-1.5,0-3.1,0-4.6,0-.6,0-.8-.3-.8-.8.2-3.6,1.7-6.4,4.5-8.6,4.5-3.6,11.3-3.4,15.6.4,2.1,1.9,3.7,4.1,4.2,6.9,1,5.3-1.7,10.7-7.2,13.1-1.2.5-1.8,1.3-1.8,2.6,0,1.4,0,1.5-1.4,1.5-.6,0-1.1,0-1.7,0h0Z"/>
      <path class="cls-1" d="M53.1,64.9c0,.8,0,1.6,0,2.3,0,.5-.2.8-.7.8-1.6,0-3.1,0-4.7,0-.5,0-.7-.2-.7-.7,0-1.6,0-3.2,0-4.8,0-.5.2-.7.7-.7,1.6,0,3.2,0,4.8,0,.5,0,.7.2.7.7,0,.8,0,1.6,0,2.4Z"/>
    </g>
  </g>
</svg>