<?xml version="1.0" encoding="UTF-8"?>
<svg xmlns="http://www.w3.org/2000/svg" version="1.1" viewBox="0 0 100 100">
  <defs>
    <style>
      .cls-1 {
        fill: #bdc6c3;
      }

      .cls-1, .cls-2 {
        stroke-width: 0px;
      }

      .cls-2 {
        fill: #d3ddda;
      }
    </style>
  </defs>
  <g id="Layer_1" data-name="Layer 1">
    <circle class="cls-2" cx="50" cy="50" r="47.5"/>
  </g>
  <g id="Layer_2" data-name="Layer 2">
    <g>
      <path class="cls-1" d="M60.6,51.8c5.1,0,10.2,0,15.3,0,2.2,0,2.9.7,2.9,2.8,0,5.9,0,11.7,0,17.6,0,2-.8,2.8-2.7,2.8-10.4,0-20.7,0-31.1,0-1.9,0-2.7-.8-2.7-2.7,0-6,0-12,0-18,0-1.8.8-2.5,2.7-2.5,5.2,0,10.5,0,15.7,0Z"/>
      <path class="cls-1" d="M39.5,48.2c-5.2,0-10.4,0-15.5,0-2,0-2.7-.7-2.7-2.8,0-5.9,0-11.8,0-17.7,0-1.9.8-2.7,2.7-2.7,10.4,0,20.8,0,31.2,0,1.9,0,2.7.8,2.7,2.7,0,5.9,0,11.9,0,17.8,0,1.9-.8,2.6-2.7,2.6-5.2,0-10.4,0-15.5,0Z"/>
      <path class="cls-1" d="M61.2,36.6c0-2.9,0-5.7,0-8.6,0-2.2.8-3,3-3,3.9,0,7.8,0,11.7,0,2.2,0,2.9.8,2.9,2.9,0,5.8,0,11.6,0,17.4,0,2.2-.7,2.9-2.9,2.9-4,0-8,0-11.9,0-1.9,0-2.7-.7-2.7-2.7,0-3,0-6,0-9Z"/>
      <path class="cls-1" d="M21.2,63.4c0-2.9,0-5.9,0-8.8,0-2,.7-2.7,2.8-2.7,4,0,8,0,12.1,0,1.9,0,2.7.7,2.7,2.6,0,5.9,0,11.9,0,17.8,0,1.9-.8,2.7-2.7,2.7-4.1,0-8.1,0-12.2,0-1.9,0-2.6-.8-2.6-2.8,0-2.9,0-5.9,0-8.8Z"/>
    </g>
  </g>
</svg>