<?xml version="1.0" encoding="UTF-8"?>
<svg id="Layer_2" data-name="Layer 2" xmlns="http://www.w3.org/2000/svg" version="1.1" viewBox="0 0 100 100">
  <defs>
    <style>
      .cls-1 {
        fill: #747474;
        stroke-width: 0px;
      }
    </style>
  </defs>
  <g id="TiIxh4.tif">
    <g>
      <path class="cls-1" d="M50,95c-6.7,0-13.4-.1-20.1,0-5.1.1-10.7-3.5-11.1-10.6-.4-7.4-.8-14.9-1.2-22.3-.3-5.6-.7-11.3-1-16.9-.5-7.4-.9-14.8-1.4-22.3,0-.8-.4-1-1.1-1-2.4,0-3.8-1.2-3.8-3.1,0-1.9,1.5-3.2,3.9-3.2,5.8,0,11.7,0,17.5,0q1.6,0,1.8-1.5c.7-4.2,3.1-7,7-8.5,1-.4,2-.5,3.1-.5,4,0,8.1,0,12.1,0,5.4,0,9.6,3.5,10.6,8.8.4,2,0,1.8,2.1,1.8,5.6,0,11.2,0,16.8,0,.5,0,1.1,0,1.6.1,1.7.3,2.8,1.6,2.7,3.1,0,1.6-1.3,2.9-3,3.1-1.8.2-1.8.2-2,2-.2,2.6-.3,5.2-.5,7.8-.3,5.5-.7,11-1,16.5-.2,3.8-.4,7.7-.6,11.5-.3,5.3-.7,10.6-1,15.9-.2,2.9-.3,5.7-.5,8.6-.2,4.9-2.9,8.7-7.2,10.2-1.1.4-2.2.5-3.4.5-6.9,0-13.8,0-20.6,0ZM50.1,21.9c-9.1,0-18.2,0-27.3,0-1,0-1.4.1-1.3,1.3.3,3.6.4,7.2.6,10.8.2,4,.4,7.9.7,11.9.4,7.4.9,14.7,1.4,22.1.3,5.2.6,10.4.8,15.6.2,4.1,2.5,5.3,5.7,5.3,11.9,0,23.7,0,35.6,0,1.5,0,3,0,4.4,0,2.2,0,3.9-1.7,4.1-3.8.2-1.6.3-3.2.4-4.8.4-6.9.8-13.8,1.2-20.7.3-5.7.7-11.4,1-17.1.4-6.4.7-12.8,1.1-19.2,0-1-.2-1.2-1.2-1.2-9.1,0-18.2,0-27.3,0ZM49.9,15.6c3.1,0,6.2,0,9.3,0,1.1,0,1.3-.3.9-1.3-.5-1.7-2.1-3-3.9-3.1-4.2,0-8.4,0-12.5,0-1.9,0-3.6,1.6-4,3.4-.2.7,0,1,.8,1,3.1,0,6.2,0,9.3,0Z"/>
      <path class="cls-1" d="M33.7,55.3c0-7.5,0-15,0-22.4,0-2.2,1.8-3.7,3.8-3.2,1.3.3,2.2,1.4,2.4,2.7,0,.3,0,.5,0,.8,0,14.8,0,29.5,0,44.3,0,2-1.1,3.4-2.8,3.5-2,.2-3.4-1.2-3.4-3.2,0-5.8,0-11.5,0-17.3,0-1.7,0-3.4,0-5.2Z"/>
      <path class="cls-1" d="M53.1,55.3c0,7.4,0,14.9,0,22.3,0,2-1.3,3.4-3.2,3.3-1.5,0-2.8-1.2-2.9-2.7,0-.2,0-.3,0-.5,0-15,0-29.9,0-44.9,0-1.5.8-2.7,2.1-3.1,2-.7,4,.8,4.1,2.9,0,2.3,0,4.6,0,6.9,0,5.3,0,10.5,0,15.8Z"/>
      <path class="cls-1" d="M60,55.3c0-7.4,0-14.9,0-22.3,0-2.2,1.8-3.7,3.9-3.2,1.2.3,2.2,1.4,2.3,2.7,0,.1,0,.2,0,.3,0,15.1,0,30.2,0,45.3,0,1.8-1.4,3.1-3.2,3-1.6,0-2.8-1.2-3-2.8,0-.4,0-.7,0-1.1,0-7.3,0-14.6,0-21.8Z"/>
    </g>
  </g>
</svg>