<?xml version="1.0" encoding="UTF-8"?>
<svg id="Layer_3" data-name="Layer 3" xmlns="http://www.w3.org/2000/svg" version="1.1" viewBox="0 0 100 100">
  <defs>
    <style>
      .cls-1 {
        fill: #7f7f7f;
        stroke-width: 0px;
      }
    </style>
  </defs>
  <path class="cls-1" d="M10.3,56.1c0,8.1,0,16.1,0,24.2,0,5.6,3.7,9.3,9.4,9.3,16.1,0,32.3,0,48.4,0,5.7,0,9.4-3.7,9.4-9.5,0-10.7,0-21.4,0-32.1,0-2.2.9-3.4,2.6-3.4,1.7,0,2.5,1.2,2.5,3.4,0,10.8,0,21.7,0,32.5,0,7.2-4.7,12.8-11.8,14.2-1.1.2-2.2.3-3.2.3-15.9,0-31.8,0-47.7,0-5.7,0-10.2-2.3-13.1-7.3-1.4-2.3-1.8-4.9-1.8-7.6,0-16,0-32,0-47.9,0-7,3.9-12.5,10.1-14.3,1.2-.4,2.4-.6,3.7-.6,11.1,0,22.3,0,33.4,0,1.2,0,2.2.3,2.8,1.5.8,1.6-.2,3.5-2,3.7-.4,0-.8,0-1.3,0-10.8,0-21.5,0-32.3,0-4.6,0-8.1,2.9-9,7.4-.1.6-.1,1.3-.1,2,0,8.1,0,16.2,0,24.3Z"/>
  <path class="cls-1" d="M82.9,5c2.1,0,3.8.7,5.3,2.1,1.5,1.5,3,3,4.5,4.5,3.1,3.2,3.1,7.7,0,10.8-6.8,6.9-13.7,13.7-20.5,20.5-7.9,7.9-15.9,15.8-23.8,23.8-2.1,2.1-4.5,3.6-7.4,4.5-2.8.9-5.6,1.7-8.4,2.6-1.9.6-3.7.3-5.2-1.1-1.5-1.5-1.8-3.3-1.2-5.3.9-2.9,1.8-5.8,2.7-8.7.8-2.6,2.2-4.8,4.1-6.7,15-15,29.9-29.9,44.9-44.9,1.4-1.4,3.1-2.2,5-2.1ZM75.1,17.5c-.3,0-.5.3-.7.5-12.3,12.3-24.6,24.6-36.9,36.8-.6.6-.5.9,0,1.4,2,2,4,3.9,5.9,5.9.7.7,1.1.8,1.9,0,5.4-5.5,10.9-10.9,16.3-16.4,6.7-6.7,13.5-13.5,20.2-20.2.7-.7.6-1,0-1.7-2-2-4-4-6-6-.2-.2-.4-.5-.7-.6ZM89.7,17c0-.5-.2-1-.6-1.4-1.6-1.6-3.1-3.2-4.8-4.7-.9-.8-2-.8-2.8,0-.8.7-1.5,1.5-2.2,2.2-.4.4-.3.7,0,1.1,2.2,2.2,4.4,4.3,6.5,6.5.4.4.7.4,1.1,0,.7-.8,1.5-1.5,2.2-2.2.4-.4.6-.9.6-1.4ZM39.5,65.9c0,0-.1-.2-.2-.3-1.6-1.6-3.2-3.2-4.8-4.8-.4-.4-.6-.2-.7.2-.7,2.3-1.4,4.6-2.2,6.9-.2.5,0,.7.5.5,2.3-.7,4.6-1.4,6.9-2.2.2,0,.4,0,.5-.4Z"/>
</svg>