<?xml version="1.0" encoding="UTF-8"?>
<svg id="Layer_4" data-name="Layer 4" xmlns="http://www.w3.org/2000/svg" version="1.1" viewBox="0 0 100 100">
  <defs>
    <style>
      .cls-1 {
        fill: #7f7f7f;
        stroke-width: 0px;
      }
    </style>
  </defs>
  <path class="cls-1" d="M65.2,28.4c9.3,0,18.6,0,27.9,0,3.4,0,5.1,1.7,5.1,5.2,0,9.1,0,18.2,0,27.2,0,3.4-1.8,5.2-5.2,5.2-13.3,0-26.6,0-39.9,0-.5,0-.9,0-1.4-.1-.7-.3-1.1-.8-1.1-1.6,0-.8.5-1.3,1.3-1.4.4,0,.9,0,1.3,0,11,0,22.1,0,33.1,0,1,0,1.4-.3,1.7-1.3.6-3.1,2.6-5,5.7-5.7,1-.2,1.3-.6,1.3-1.6,0-4.7,0-9.4,0-14.2,0-1-.3-1.4-1.3-1.6-2.9-.5-5.2-2.8-5.7-5.7-.2-.9-.6-1.2-1.5-1.2-14.3,0-28.6,0-43,0-1,0-1.3.2-1.5,1.3-.6,3-2.6,5-5.6,5.7-1,.2-1.4.6-1.3,1.7,0,1.9,0,3.8,0,5.7,0,.5,0,1-.2,1.4-.2.7-.8,1-1.5,1-.7,0-1.2-.5-1.4-1.2,0-.3,0-.6,0-1,0-4.3,0-8.6,0-13,0-2.9,1.8-4.7,4.7-4.7,9.5,0,19,0,28.5,0ZM95,60.5c0-.4,0-.7,0-1.1,0-.5-.3-.6-.7-.5-1.4.2-3.1,1.9-3.2,3.3,0,.3,0,.5.3.6,2.1.8,3.6-.2,3.6-2.3ZM92.7,31.6c-.2,0-.4,0-.6,0-.9,0-1.1.3-.8,1.1.5,1.5,1.5,2.4,3,2.8.3,0,.5.1.7-.2.9-1.9-.2-3.6-2.3-3.6ZM37.4,31.6c-1.6,0-2.1.2-2.2,1.2,0,.7,0,1.4,0,2.2,0,.4.2.6.7.6,1.3-.2,2.8-1.6,3.1-2.9.1-.7,0-1-.8-1-.3,0-.5,0-.8,0Z"/>
  <path class="cls-1" d="M27.7,5.8c-6.8,0-13.7,0-20.5,0-2,0-2.2.2-2.2,2.1,0,8.9,0,17.9,0,26.8,0,2,.2,2.2,2.3,2.2,6.9,0,13.8,0,20.7,0,.5,0,1.1,0,1.6.2.8.2,1.2.8,1.1,1.5,0,.8-.6,1.3-1.4,1.4-.3,0-.7,0-1,0-7.2,0-14.5,0-21.7,0-3,0-4.6-1.4-4.9-4.4,0-.4,0-.9,0-1.3,0-8.6,0-17.3,0-25.9,0,0,0-.1,0-.2,0-4,1.6-5.7,5.6-5.7,13.7,0,27.4,0,41.1,0,3.6,0,5.3,1.7,5.3,5.3,0,5.6,0,11.3,0,16.9,0,.4,0,.8,0,1.2-.1.7-.6,1.2-1.3,1.2-.7,0-1.2-.3-1.6-.9-.2-.4-.2-.9-.2-1.4,0-3.1,0-6.1,0-9.2,0-1-.3-1.4-1.4-1.4-8.2,0-16.4,0-24.6,0-.4,0-.9,0-1.3,0-.8-.2-1.3-.6-1.3-1.5,0-.9.5-1.4,1.4-1.6.4,0,.8,0,1.2,0,8.2,0,16.3,0,24.5,0q1.5,0,1.5-1.5c0-.8,0-1.6,0-2.4,0-1-.5-1.5-1.5-1.5-1.4,0-2.8,0-4.3,0-5.7,0-11.4,0-17.1,0Z"/>
  <path class="cls-1" d="M26.3,97.5c-13.2.2-24.6-11-24.4-24.5.1-13.5,11-24.4,24.5-24.4,13.4,0,24.5,11.1,24.5,24.5,0,14.2-11.8,24.7-24.6,24.5ZM26.3,94.3c11.8,0,21.4-9.4,21.4-21.1,0-11.9-9.4-21.5-21.2-21.5-11.9,0-21.5,9.4-21.5,21.3,0,11.9,9.4,21.4,21.3,21.4Z"/>
  <path class="cls-1" d="M65.1,57.3c-5.6,0-10.1-4.5-10.2-10.1,0-5.6,4.6-10.2,10.2-10.2,5.5,0,10.2,4.6,10.2,10.1,0,5.6-4.6,10.2-10.2,10.2ZM65,54.2c3.9,0,7.1-3.1,7.1-6.9,0-3.9-3.2-7.2-7-7.1-3.9,0-7,3.2-7,7,0,3.9,3,7,7,7Z"/>
  <path class="cls-1" d="M14.8,17.2c-1.3,0-2.6,0-3.9,0-1.2,0-1.9-.5-1.9-1.7,0-1.8,0-3.6,0-5.3,0-1.3.6-1.8,1.9-1.8,2.6,0,5.3,0,7.9,0,1.3,0,1.9.6,1.9,1.8,0,1.7,0,3.4,0,5.1,0,1.3-.7,1.9-2,1.9-1.3,0-2.6,0-3.9,0ZM14.7,14c.7,0,1.3,0,2,0,.9,0,.9-.6.9-1.2,0-.6.1-1.4-.9-1.3-1.2,0-2.4,0-3.6,0-.8,0-1,.3-1,1.1,0,1.4,0,1.4,1.4,1.4.4,0,.9,0,1.3,0Z"/>
  <path class="cls-1" d="M7.6,31.4c0-.5,0-.9,0-1.4,0-.9.5-1.4,1.4-1.5.9,0,1.5.4,1.6,1.2.2,1.1.2,2.3,0,3.4-.2.8-.7,1.3-1.6,1.2-.9,0-1.4-.6-1.5-1.5,0-.5,0-1,0-1.5,0,0,0,0,0,0Z"/>
  <path class="cls-1" d="M19.3,31.4c0,.5,0,1,0,1.5,0,.8-.5,1.4-1.4,1.5-.8.1-1.4-.3-1.6-1.1-.3-1.2-.3-2.4,0-3.7.2-.8.8-1.2,1.6-1.1.8,0,1.3.6,1.4,1.4,0,.5,0,1,0,1.5Z"/>
  <path class="cls-1" d="M26.5,31.4c0,.5,0,1,0,1.5,0,.9-.6,1.4-1.5,1.5-.8,0-1.4-.4-1.6-1.2-.2-1.2-.2-2.4,0-3.6.2-.8.8-1.2,1.6-1.2.8,0,1.3.6,1.4,1.4,0,.5,0,1,0,1.5h0Z"/>
  <path class="cls-1" d="M11.9,31.4c0-.5,0-1,0-1.5,0-.9.5-1.3,1.4-1.4.8,0,1.4.3,1.6,1,.3,1.3.3,2.6,0,3.9-.2.7-.8,1.1-1.6,1-.8,0-1.3-.5-1.3-1.3,0-.5,0-1.1,0-1.6,0,0,0,0,0,0Z"/>
  <path class="cls-1" d="M26,74.6c-1.3,0-2.7,0-4,0-3.7,0-6.9-3-7.1-6.5-.3-4,2.2-7.4,6-7.9.9-.1,1.2-.4,1.2-1.3,0-1.1.5-1.7,1.4-1.7,1,0,1.5.6,1.6,1.5.2,1.2.8,1.6,2.1,1.3.6-.1.5-.5.5-.9,0-.6.1-1.2.6-1.6.5-.4,1-.4,1.5-.3.7.3,1.1.8,1,1.5,0,.9.3,1.2,1.2,1.4,3.3.6,5.6,3.2,6,6.6.1,1.1-.5,2-1.5,2.1-.9,0-1.5-.5-1.7-1.6-.4-2.7-1.8-4-4.5-4-2.7,0-5.4,0-8.2,0-2.5,0-4.2,1.7-4.2,4.1,0,2.4,1.7,4.1,4.3,4.1,2.7,0,5.4,0,8.1,0,4,0,7,2.5,7.6,6.3.6,3.7-1.9,7.5-5.7,8.2-.9.2-1.4.4-1.4,1.5,0,1-.8,1.6-1.6,1.6-1-.1-1.5-.7-1.5-1.7,0-.7-.2-1.2-1-1.1-.8,0-1.5-.2-1.6,1.1,0,1.2-.8,1.8-1.7,1.8-.9,0-1.4-.7-1.4-1.8,0-1-.6-1-1.2-1.1-3.2-.7-5.1-2.6-5.9-5.7-.1-.5-.1-1,0-1.5,0-.8.5-1.3,1.3-1.4.8-.1,1.4.2,1.7,1,0,.3.1.6.2.8.3,2.2,1.9,3.7,4.2,3.8,2.8,0,5.6,0,8.4,0,2.4,0,4.2-1.8,4.3-4,0-2.3-1.8-4.2-4.2-4.3-1.6,0-3.1,0-4.7,0,0,0,0,0,0,0Z"/>
</svg>