<?xml version="1.0" encoding="UTF-8"?>
<svg xmlns="http://www.w3.org/2000/svg" version="1.1" viewBox="0 0 100 100">
  <defs>
    <style>
      .cls-1 {
        fill: #bdc6c3;
      }

      .cls-1, .cls-2 {
        stroke-width: 0px;
      }

      .cls-2 {
        fill: #d3ddda;
      }
    </style>
  </defs>
  <g id="Layer_1" data-name="Layer 1">
    <circle class="cls-2" cx="50" cy="50" r="47.5"/>
  </g>
  <g id="Layer_3" data-name="Layer 3">
    <path class="cls-1" d="M27.3,63.5c0-4,0-7.9,0-11.9,0-1.3-.4-1.8-1.7-1.7-.9,0-1.9,0-2.8,0-.8,0-1.5-.2-1.9-1-.4-.8,0-1.4.6-2,2.5-2.6,5-5.3,7.5-7.9,6.5-6.7,12.9-13.5,19.4-20.2,1.1-1.2,1.9-1.2,3.1,0,8.7,9,17.3,18,26,27.1.4.4.8.8,1.1,1.3,1,1.2.5,2.4-1,2.6-1.1.1-2.1.1-3.2,0-1.4,0-1.8.4-1.8,1.8,0,7.3,0,14.6,0,22,0,.5,0,.9,0,1.4,0,2.5-.4,2.9-2.9,2.9-3,0-6.1,0-9.1,0-2.3,0-2.6-.4-2.6-2.6,0-5.4,0-10.8,0-16.2,0-1.9-.3-2.2-2.2-2.2-3.9,0-7.8,0-11.8,0-1.8,0-2.1.3-2.1,2.2,0,5.5,0,11,0,16.5,0,1.9-.4,2.3-2.3,2.3-3.3,0-6.6,0-9.9,0-1.9,0-2.4-.5-2.4-2.4,0-4,0-8,0-12Z"/>
  </g>
</svg>