<?xml version="1.0" encoding="UTF-8"?>
<svg id="Layer_1" data-name="Layer 1" xmlns="http://www.w3.org/2000/svg" version="1.1" viewBox="0 0 100 100">
  <defs>
    <style>
      .cls-1 {
        fill: #7f7f7f;
        stroke-width: 0px;
      }
    </style>
  </defs>
  <path class="cls-1" d="M59.1,74.6c-2.5,0-5,0-7.6,0-1.9,0-3.5.7-4.9,2-2.2,2.2-4.4,4.4-6.6,6.6-.7.7-.8,1.1-.1,1.9,2.5,3.1,2.3,7.4-.3,10-3,2.9-7.6,2.9-10.6,0-3.9-3.8-7.7-7.7-11.6-11.6-3.4-3.4-6.8-6.7-10.2-10.2-3.5-3.6-2.8-9.1,1.5-11.6,2.7-1.6,6.1-1.3,8.6.8,1.1.9,1,.8,2-.1,2.7-2.8,5.3-5.6,8-8.3,2-2,4.4-2.9,7.2-2.9,10.7,0,21.3,0,32,0,2.1,0,3.9.7,5.3,2.3.6.6.9.5,1.4,0,3-3.1,6.1-6.1,9.2-9.2,2.1-2.1,4.7-2.8,7.5-1.9,2.8.9,4.5,2.9,4.9,5.8.4,2.3-.4,4.3-1.9,5.9-5.9,5.9-11.8,11.8-17.8,17.7-2.3,2.3-5.2,2.9-8.3,2.8-2.6,0-5.2,0-7.8,0ZM50.4,55.3c-5.3,0-10.5,0-15.8,0-1.8,0-3.3.5-4.6,1.8-2.8,2.8-5.6,5.7-8.4,8.5-.6.6-.4.9,0,1.4,4.5,4.5,9.1,9,13.6,13.6.6.6,1,.6,1.6,0,2.2-2.2,4.4-4.3,6.6-6.5,2.4-2.4,5.3-3.6,8.7-3.6,5.3,0,10.6,0,15.9,0,1.7,0,3.2-.5,4.4-1.7,5.9-5.8,11.7-11.7,17.6-17.6.5-.5.8-1,.9-1.7.1-1.4-.6-2.7-1.8-3.3-1.2-.6-2.5-.4-3.5.7-3.7,3.7-7.4,7.3-11.1,11-.4.4-.6.8-.7,1.4-.7,3.9-3.4,6.2-7.3,6.2-1.8,0-3.5,0-5.3,0-3.8,0-7.6,0-11.3,0-1.2,0-2.1-.7-2.2-1.8,0-1.1.7-2,2-2.1.6,0,1.1,0,1.7,0,4.3,0,8.5,0,12.8,0,1,0,2,0,3,0,1.6-.1,2.7-1.4,2.7-2.9,0-1.8-1.2-3.1-3.2-3.1-5.4,0-10.9,0-16.3,0ZM12.5,64.7c-1.5,0-2.6.6-3.2,1.9-.6,1.4-.4,2.8.8,4,7.3,7.3,14.5,14.6,21.8,21.8.6.6,1.2.9,2,1,1.4,0,2.7-.7,3.3-1.8.6-1.3.4-3-.6-4.1-7.3-7.3-14.5-14.6-21.8-21.8-.6-.6-1.4-1-2.3-.9Z"/>
  <path class="cls-1" d="M56.5,2.7c9.8,0,19.5,0,29.3,0,3.7,0,5.8,2.1,5.8,5.8,0,8.6,0,17.1,0,25.7,0,3.6-2.2,5.8-5.8,5.8-19.5,0-39.1,0-58.6,0-3.6,0-5.8-2.2-5.8-5.8,0-8.5,0-17.1,0-25.6,0-3.8,2.1-5.9,5.8-5.9,9.8,0,19.5,0,29.3,0ZM56.5,35.9c9.6,0,19.3,0,28.9,0,2,0,2.3-.4,2.3-2.3,0-8.2,0-16.5,0-24.7,0-1.9-.4-2.3-2.3-2.3-19.3,0-38.5,0-57.8,0-1.9,0-2.2.3-2.2,2.2,0,8.3,0,16.7,0,25,0,1.9.2,2.2,2.2,2.2,9.6,0,19.3,0,28.9,0Z"/>
  <path class="cls-1" d="M43.3,17.7c0,.2,0,.4,0,.5-.2,1.6.1,2.8,1.9,3.5,1.7.7,2.4,2.5,2.3,4.4-.2,2-1.3,3.4-3.2,4-.7.2-1,.5-.9,1.3,0,.3,0,.6,0,.8,0,.8-.5,1.2-1.3,1.3-.7,0-1.3-.5-1.3-1.1.2-1.6-.7-2-2-2.5-1.8-.8-2.8-2.8-2.6-4.9,0-.8.5-1.3,1.2-1.3.8,0,1.2.5,1.3,1.2,0,.3,0,.6,0,.9,0,.6.3,1.1.8,1.4.2.2.5.4.8.2.3-.1.2-.4.2-.7,0-.3,0-.6,0-.9.3-2.2-.1-3.7-2.5-4.8-2.1-1-2.2-3.3-1.9-5.4.3-1.9,1.5-3.2,3.4-3.7.7-.2,1-.4,1-1.2,0-.8.4-1.4,1.2-1.4.8,0,1.4.5,1.3,1.3,0,1,.5,1.3,1.3,1.6,2,.7,3.2,2.8,2.9,5,0,.9-.7,1.6-1.4,1.5-.9,0-1.2-.7-1.3-1.5,0-.7,0-1.3-.4-1.9-.2-.2-.4-.5-.8-.5-.4,0-.2.5-.3.8,0,.7,0,1.4,0,2.1ZM40.8,17c0-.6,0-1.1,0-1.7,0-.2,0-.5-.2-.6-.3-.1-.5,0-.7.2-1,.7-1,3.1,0,3.9.2.2.5.4.7.3.3-.1.2-.5.3-.7,0-.5,0-.9,0-1.4ZM44.9,26c0-.7-.2-1.1-.4-1.4-.2-.2-.4-.5-.7-.4-.3.1-.2.4-.2.6,0,.5,0,1,0,1.6,0,.3-.2.8.3.9.4.1.7-.3.8-.6.1-.3.2-.6.3-.7Z"/>
  <path class="cls-1" d="M68.7,23.6c-4.2,0-8.5,0-12.7,0-.5,0-.9,0-1.3-.1-.9-.2-1.4-.9-1.4-1.8,0-.9.4-1.6,1.2-1.9.3-.1.7-.2,1.1-.2,8.8,0,17.6,0,26.5,0,1.5,0,2.4.9,2.3,2.2-.1,1.1-1,1.8-2.4,1.8-4.4,0-8.8,0-13.2,0Z"/>
  <path class="cls-1" d="M65,26.4c3.1,0,6.3,0,9.4,0,.9,0,1.7.3,2.1,1.1.6,1,0,2.3-1.1,2.8-.5.2-1.1.2-1.7.2-5.9,0-11.8,0-17.6,0-.4,0-.8,0-1.3,0-1.2-.2-1.9-1.1-1.8-2.1.1-1.1.9-1.8,2.1-1.9,2,0,4,0,6,0,1.3,0,2.5,0,3.8,0Z"/>
  <path class="cls-1" d="M61.9,16.5c-2.1,0-4.3,0-6.4,0-1,0-1.9-.3-2.2-1.4-.5-1.4.5-2.6,2.2-2.7,2.8,0,5.7,0,8.5,0,1.4,0,2.9,0,4.3,0,1.6,0,2.4.7,2.4,2,0,1.3-.9,2.1-2.4,2.1-2.1,0-4.3,0-6.4,0Z"/>
</svg>